<svg width="70" height="84" viewBox="0 0 70 84" fill="none" xmlns="http://www.w3.org/2000/svg">
<g filter="url(#filter0_dd_28_66)">
<mask id="path-1-outside-1_28_66" maskUnits="userSpaceOnUse" x="7.79999" y="5.30005" width="54" height="69" fill="black">
<rect fill="white" x="7.79999" y="5.30005" width="54" height="69"/>
<path d="M42.4 44.8C44.7333 48.7334 47.0667 52.2334 49.4 55.3C51.8 58.3 54.9333 62 58.8 66.4C59.2667 66.8667 59.5 67.4 59.5 68C59.5 68.9334 58.9667 69.7334 57.9 70.4C56.9 71.0667 55.6667 71.4 54.2 71.4C52.1333 71.4 49.9 70.5334 47.5 68.8C45.3667 67.2667 43.4667 65.2334 41.8 62.7C40.1333 60.1667 38.2 56.8667 36 52.8C34.2667 49.6667 33.2333 47.8334 32.9 47.3C30.3 48.3667 26.2333 49.0334 20.7 49.3C20.7 51.5667 20.9 54.6334 21.3 58.5C21.7 62.5 21.9 65.4 21.9 67.2C21.9 68.4 21.3 69.4 20.1 70.2C18.9667 71 17.6667 71.4 16.2 71.4C14.4667 71.4 13.1333 70.7 12.2 69.3C11.2667 67.4334 10.6667 65.2 10.4 62.6C10.1333 60 9.99999 56.9 9.99999 53.3C9.99999 49.5 10.2333 45.2 10.7 40.4C11.1 35.0667 11.3 31.1334 11.3 28.6C11.3 26.5334 11.1 23.7667 10.7 20.3C10.6333 19.7 10.5333 18.6667 10.4 17.2C10.2667 15.7334 10.2 14.4 10.2 13.2C10.2 12.2667 10.5333 11.4667 11.2 10.8C11.9333 10.0667 12.7 9.56671 13.5 9.30005C18.9 8.43338 24.1667 8.00005 29.3 8.00005C38.0333 8.00005 45.2667 9.63338 51 12.9C56.7333 16.1667 59.6 21.1334 59.6 27.8C59.6 29.8667 59.1333 31.8667 58.2 33.8C57.3333 35.6667 56.1333 37.2334 54.6 38.5C50.5333 41.6334 46.4667 43.7334 42.4 44.8ZM49.1 27.5C49.1 24.3 47.4 21.7 44 19.7C40.6 17.6334 35.7667 16.6 29.5 16.6C26.7 16.6 23.9333 16.9334 21.2 17.6L21.3 22.7C21.3 25.6334 21.2 28.5 21 31.3C20.8 34.1 20.7 37.1 20.7 40.3C21.8333 40.0334 23.0333 39.8667 24.3 39.8C25.5667 39.6667 26.4 39.5667 26.8 39.5C29.7333 39.2334 32 38.9 33.6 38.5C36.6 37.5667 39.0667 36.7334 41 36C43 35.2 44.8333 34.1 46.5 32.7C48.2333 31.2334 49.1 29.5 49.1 27.5Z"/>
</mask>
<path d="M42.4 44.8C44.7333 48.7334 47.0667 52.2334 49.4 55.3C51.8 58.3 54.9333 62 58.8 66.4C59.2667 66.8667 59.5 67.4 59.5 68C59.5 68.9334 58.9667 69.7334 57.9 70.4C56.9 71.0667 55.6667 71.4 54.2 71.4C52.1333 71.4 49.9 70.5334 47.5 68.8C45.3667 67.2667 43.4667 65.2334 41.8 62.7C40.1333 60.1667 38.2 56.8667 36 52.8C34.2667 49.6667 33.2333 47.8334 32.9 47.3C30.3 48.3667 26.2333 49.0334 20.7 49.3C20.7 51.5667 20.9 54.6334 21.3 58.5C21.7 62.5 21.9 65.4 21.9 67.2C21.9 68.4 21.3 69.4 20.1 70.2C18.9667 71 17.6667 71.4 16.2 71.4C14.4667 71.4 13.1333 70.7 12.2 69.3C11.2667 67.4334 10.6667 65.2 10.4 62.6C10.1333 60 9.99999 56.9 9.99999 53.3C9.99999 49.5 10.2333 45.2 10.7 40.4C11.1 35.0667 11.3 31.1334 11.3 28.6C11.3 26.5334 11.1 23.7667 10.7 20.3C10.6333 19.7 10.5333 18.6667 10.4 17.2C10.2667 15.7334 10.2 14.4 10.2 13.2C10.2 12.2667 10.5333 11.4667 11.2 10.8C11.9333 10.0667 12.7 9.56671 13.5 9.30005C18.9 8.43338 24.1667 8.00005 29.3 8.00005C38.0333 8.00005 45.2667 9.63338 51 12.9C56.7333 16.1667 59.6 21.1334 59.6 27.8C59.6 29.8667 59.1333 31.8667 58.2 33.8C57.3333 35.6667 56.1333 37.2334 54.6 38.5C50.5333 41.6334 46.4667 43.7334 42.4 44.8ZM49.1 27.5C49.1 24.3 47.4 21.7 44 19.7C40.6 17.6334 35.7667 16.6 29.5 16.6C26.7 16.6 23.9333 16.9334 21.2 17.6L21.3 22.7C21.3 25.6334 21.2 28.5 21 31.3C20.8 34.1 20.7 37.1 20.7 40.3C21.8333 40.0334 23.0333 39.8667 24.3 39.8C25.5667 39.6667 26.4 39.5667 26.8 39.5C29.7333 39.2334 32 38.9 33.6 38.5C36.6 37.5667 39.0667 36.7334 41 36C43 35.2 44.8333 34.1 46.5 32.7C48.2333 31.2334 49.1 29.5 49.1 27.5Z" fill="white"/>
<path d="M42.4 44.8L41.8926 42.8655L39.3263 43.5386L40.6799 45.8205L42.4 44.8ZM49.4 55.3L47.8083 56.5111L47.8231 56.5304L47.8383 56.5494L49.4 55.3ZM58.8 66.4L57.2977 67.7203L57.3402 67.7687L57.3858 67.8143L58.8 66.4ZM57.9 70.4L56.84 68.7041L56.8151 68.7196L56.7906 68.7359L57.9 70.4ZM47.5 68.8L48.671 67.1787L48.6673 67.176L47.5 68.8ZM36 52.8L37.7591 51.8484L37.7546 51.8401L37.7501 51.8319L36 52.8ZM32.9 47.3L34.596 46.2401L33.7018 44.8093L32.1409 45.4497L32.9 47.3ZM20.7 49.3L20.6037 47.3024L18.7 47.3941V49.3H20.7ZM21.3 58.5L23.2901 58.301L23.2894 58.2943L21.3 58.5ZM20.1 70.2L18.9906 68.5359L18.9684 68.5507L18.9466 68.5661L20.1 70.2ZM12.2 69.3L10.4111 70.1945L10.4668 70.3058L10.5359 70.4094L12.2 69.3ZM10.4 62.6L12.3896 62.396L10.4 62.6ZM10.7 40.4L12.6906 40.5936L12.6927 40.5716L12.6944 40.5496L10.7 40.4ZM10.7 20.3L8.7122 20.5209L8.71317 20.5293L10.7 20.3ZM10.4 17.2L12.3918 17.019L12.3918 17.019L10.4 17.2ZM11.2 10.8L12.6142 12.2143L12.6142 12.2143L11.2 10.8ZM13.5 9.30005L13.1831 7.32532L13.0221 7.35114L12.8675 7.40268L13.5 9.30005ZM51 12.9L51.9901 11.1623L51.9901 11.1623L51 12.9ZM58.2 33.8L56.3989 32.9305L56.3923 32.9441L56.386 32.9578L58.2 33.8ZM54.6 38.5L55.8207 40.0843L55.8476 40.0636L55.8738 40.042L54.6 38.5ZM44 19.7L42.9612 21.4091L42.9735 21.4166L42.986 21.4239L44 19.7ZM21.2 17.6L20.7261 15.657L19.169 16.0368L19.2004 17.6393L21.2 17.6ZM21.3 22.7H23.3V22.6804L23.2996 22.6608L21.3 22.7ZM21 31.3L22.9949 31.4425L22.9949 31.4425L21 31.3ZM20.7 40.3H18.7V42.8253L21.1581 42.2469L20.7 40.3ZM24.3 39.8L24.4051 41.7973L24.4573 41.7945L24.5094 41.7891L24.3 39.8ZM26.8 39.5L26.6189 37.5083L26.5447 37.515L26.4712 37.5273L26.8 39.5ZM33.6 38.5L34.0851 40.4403L34.14 40.4266L34.1941 40.4098L33.6 38.5ZM41 36L41.7093 37.87L41.7261 37.8637L41.7428 37.857L41 36ZM46.5 32.7L47.7864 34.2315L47.7919 34.2268L46.5 32.7ZM42.4 44.8L40.6799 45.8205C43.0454 49.808 45.4209 53.3734 47.8083 56.5111L49.4 55.3L50.9916 54.089C48.7124 51.0934 46.4213 47.6588 44.1201 43.7796L42.4 44.8ZM49.4 55.3L47.8383 56.5494C50.2647 59.5825 53.42 63.3078 57.2977 67.7203L58.8 66.4L60.3023 65.0798C56.4467 60.6923 53.3353 57.0176 50.9617 54.0507L49.4 55.3ZM58.8 66.4L57.3858 67.8143C57.4662 67.8947 57.4884 67.942 57.4927 67.9517C57.4954 67.9578 57.4965 67.9619 57.4973 67.9659C57.4982 67.97 57.5 67.9805 57.5 68H59.5H61.5C61.5 66.8141 61.0148 65.7864 60.2142 64.9858L58.8 66.4ZM59.5 68H57.5C57.5 68.0594 57.4905 68.1087 57.4359 68.1906C57.3673 68.2936 57.2035 68.4768 56.84 68.7041L57.9 70.4L58.96 72.096C60.3843 71.2059 61.5 69.854 61.5 68H59.5ZM57.9 70.4L56.7906 68.7359C56.1853 69.1395 55.3596 69.4 54.2 69.4V71.4V73.4C55.9737 73.4 57.6147 72.994 59.0094 72.0641L57.9 70.4ZM54.2 71.4V69.4C52.7003 69.4 50.8721 68.7684 48.671 67.1787L47.5 68.8L46.329 70.4214C48.9278 72.2983 51.5663 73.4 54.2 73.4V71.4ZM47.5 68.8L48.6673 67.176C46.7606 65.8056 45.0236 63.961 43.4708 61.6008L41.8 62.7L40.1292 63.7993C41.9098 66.5058 43.9728 68.7279 46.3327 70.4241L47.5 68.8ZM41.8 62.7L43.4708 61.6008C41.8474 59.1333 39.9443 55.8878 37.7591 51.8484L36 52.8L34.2409 53.7517C36.4557 57.8456 38.4192 61.2002 40.1292 63.7993L41.8 62.7ZM36 52.8L37.7501 51.8319C36.0321 48.7264 34.9653 46.831 34.596 46.2401L32.9 47.3L31.204 48.36C31.5013 48.8358 32.5012 50.607 34.2499 53.7682L36 52.8ZM32.9 47.3L32.1409 45.4497C29.8696 46.3815 26.0861 47.0382 20.6037 47.3024L20.7 49.3L20.7963 51.2977C26.3806 51.0286 30.7304 50.3519 33.6591 49.1504L32.9 47.3ZM20.7 49.3H18.7C18.7 51.6669 18.9078 54.8116 19.3106 58.7058L21.3 58.5L23.2894 58.2943C22.8922 54.4551 22.7 51.4665 22.7 49.3H20.7ZM21.3 58.5L19.3099 58.6991C19.7093 62.6931 19.9 65.5076 19.9 67.2H21.9H23.9C23.9 65.2925 23.6907 62.307 23.2901 58.301L21.3 58.5ZM21.9 67.2H19.9C19.9 67.5899 19.7632 68.0209 18.9906 68.5359L20.1 70.2L21.2094 71.8641C22.8368 70.7792 23.9 69.2102 23.9 67.2H21.9ZM20.1 70.2L18.9466 68.5661C18.1706 69.1139 17.2787 69.4 16.2 69.4V71.4V73.4C18.0546 73.4 19.7627 72.8862 21.2534 71.834L20.1 70.2ZM16.2 71.4V69.4C15.1111 69.4 14.4133 69.0144 13.8641 68.1906L12.2 69.3L10.5359 70.4094C11.8534 72.3857 13.8222 73.4 16.2 73.4V71.4ZM12.2 69.3L13.9888 68.4056C13.187 66.8019 12.6375 64.8139 12.3896 62.396L10.4 62.6L8.41043 62.8041C8.69577 65.5862 9.34632 68.0649 10.4111 70.1945L12.2 69.3ZM10.4 62.6L12.3896 62.396C12.1319 59.8836 12 56.8553 12 53.3H9.99999H7.99999C7.99999 56.9448 8.13477 60.1165 8.41043 62.8041L10.4 62.6ZM9.99999 53.3H12C12 49.5791 12.2286 45.3454 12.6906 40.5936L10.7 40.4L8.70937 40.2065C8.23803 45.0546 7.99999 49.421 7.99999 53.3H9.99999ZM10.7 40.4L12.6944 40.5496C13.095 35.2085 13.3 31.2126 13.3 28.6H11.3H9.29999C9.29999 31.0542 9.105 34.925 8.70559 40.2505L10.7 40.4ZM11.3 28.6H13.3C13.3 26.4225 13.0905 23.5695 12.6868 20.0708L10.7 20.3L8.71317 20.5293C9.10947 23.9639 9.29999 26.6443 9.29999 28.6H11.3ZM10.7 20.3L12.6878 20.0792C12.6235 19.5012 12.5251 18.4858 12.3918 17.019L10.4 17.2L8.4082 17.3811C8.54152 18.8476 8.64311 19.8989 8.71222 20.5209L10.7 20.3ZM10.4 17.2L12.3918 17.019C12.2627 15.5996 12.2 14.3279 12.2 13.2H10.2H8.19999C8.19999 14.4722 8.27057 15.8672 8.4082 17.3811L10.4 17.2ZM10.2 13.2H12.2C12.2 12.8032 12.3183 12.5101 12.6142 12.2143L11.2 10.8L9.78578 9.38583C8.74832 10.4233 8.19999 11.7303 8.19999 13.2H10.2ZM11.2 10.8L12.6142 12.2143C13.1775 11.6509 13.687 11.3459 14.1324 11.1974L13.5 9.30005L12.8675 7.40268C11.713 7.78752 10.6891 8.48251 9.78577 9.38584L11.2 10.8ZM13.5 9.30005L13.8169 11.2748C19.1189 10.4238 24.2795 10 29.3 10V8.00005V6.00005C24.0539 6.00005 18.6811 6.44292 13.1831 7.32532L13.5 9.30005ZM29.3 8.00005V10C37.7949 10 44.6604 11.5898 50.0099 14.6378L51 12.9L51.9901 11.1623C45.8729 7.67694 38.2718 6.00005 29.3 6.00005V8.00005ZM51 12.9L50.0099 14.6378C55.1109 17.5442 57.6 21.8428 57.6 27.8H59.6H61.6C61.6 20.424 58.3558 14.7893 51.9901 11.1623L51 12.9ZM59.6 27.8H57.6C57.6 29.5538 57.2065 31.2576 56.3989 32.9305L58.2 33.8L60.0011 34.6695C61.0601 32.4759 61.6 30.1796 61.6 27.8H59.6ZM58.2 33.8L56.386 32.9578C55.6404 34.5636 54.6214 35.8882 53.3262 36.9581L54.6 38.5L55.8738 40.042C57.6452 38.5786 59.0262 36.7699 60.014 34.6423L58.2 33.8ZM54.6 38.5L53.3793 36.9158C49.4789 39.921 45.65 41.8799 41.8926 42.8655L42.4 44.8L42.9074 46.7346C47.2833 45.5868 51.5877 43.3458 55.8207 40.0843L54.6 38.5ZM49.1 27.5H51.1C51.1 23.418 48.8591 20.238 45.014 17.9762L44 19.7L42.986 21.4239C45.9408 23.1621 47.1 25.1821 47.1 27.5H49.1ZM44 19.7L45.0388 17.991C41.1945 15.6543 35.9409 14.6 29.5 14.6V16.6V18.6C35.5924 18.6 40.0055 19.6125 42.9612 21.4091L44 19.7ZM29.5 16.6V14.6C26.5395 14.6 23.6138 14.9527 20.7261 15.657L21.2 17.6L21.6739 19.5431C24.2529 18.9141 26.8604 18.6 29.5 18.6V16.6ZM21.2 17.6L19.2004 17.6393L19.3004 22.7393L21.3 22.7L23.2996 22.6608L23.1996 17.5608L21.2 17.6ZM21.3 22.7H19.3C19.3 25.588 19.2015 28.407 19.0051 31.1576L21 31.3L22.9949 31.4425C23.1984 28.5931 23.3 25.6788 23.3 22.7H21.3ZM21 31.3L19.0051 31.1576C18.8013 34.011 18.7 37.0589 18.7 40.3H20.7H22.7C22.7 37.1412 22.7987 34.1891 22.9949 31.4425L21 31.3ZM20.7 40.3L21.1581 42.2469C22.1657 42.0098 23.2469 41.8582 24.4051 41.7973L24.3 39.8L24.1949 37.8028C22.8197 37.8752 21.5009 38.057 20.2419 38.3532L20.7 40.3ZM24.3 39.8L24.5094 41.7891C25.764 41.657 26.6587 41.5512 27.1288 41.4728L26.8 39.5L26.4712 37.5273C26.1412 37.5823 25.3694 37.6764 24.0906 37.811L24.3 39.8ZM26.8 39.5L26.9811 41.4918C29.9506 41.2219 32.3366 40.8774 34.0851 40.4403L33.6 38.5L33.1149 36.5598C31.6634 36.9226 29.516 37.2449 26.6189 37.5083L26.8 39.5ZM33.6 38.5L34.1941 40.4098C37.2153 39.4699 39.7239 38.6231 41.7093 37.87L41 36L40.2907 34.1301C38.4094 34.8436 35.9847 35.6636 33.0059 36.5903L33.6 38.5ZM41 36L41.7428 37.857C43.9422 36.9772 45.9587 35.7667 47.7864 34.2315L46.5 32.7L45.2136 31.1686C43.708 32.4334 42.0578 33.4229 40.2572 34.1431L41 36ZM46.5 32.7L47.7919 34.2268C49.9063 32.4377 51.1 30.172 51.1 27.5H49.1H47.1C47.1 28.8281 46.5603 30.0291 45.2081 31.1733L46.5 32.7Z" fill="black" mask="url(#path-1-outside-1_28_66)"/>
</g>
<defs>
<filter id="filter0_dd_28_66" x="0" y="0" width="69.6" height="83.4" filterUnits="userSpaceOnUse" color-interpolation-filters="sRGB">
<feFlood flood-opacity="0" result="BackgroundImageFix"/>
<feColorMatrix in="SourceAlpha" type="matrix" values="0 0 0 0 0 0 0 0 0 0 0 0 0 0 0 0 0 0 127 0" result="hardAlpha"/>
<feMorphology radius="2" operator="dilate" in="SourceAlpha" result="effect1_dropShadow_28_66"/>
<feOffset dy="2"/>
<feGaussianBlur stdDeviation="3"/>
<feColorMatrix type="matrix" values="0 0 0 0 0 0 0 0 0 0 0 0 0 0 0 0 0 0 0.15 0"/>
<feBlend mode="normal" in2="BackgroundImageFix" result="effect1_dropShadow_28_66"/>
<feColorMatrix in="SourceAlpha" type="matrix" values="0 0 0 0 0 0 0 0 0 0 0 0 0 0 0 0 0 0 127 0" result="hardAlpha"/>
<feOffset dy="1"/>
<feGaussianBlur stdDeviation="1"/>
<feColorMatrix type="matrix" values="0 0 0 0 0 0 0 0 0 0 0 0 0 0 0 0 0 0 0.3 0"/>
<feBlend mode="normal" in2="effect1_dropShadow_28_66" result="effect2_dropShadow_28_66"/>
<feBlend mode="normal" in="SourceGraphic" in2="effect2_dropShadow_28_66" result="shape"/>
</filter>
</defs>
</svg>
